<?xml version="1.0" encoding="utf-8"?>
<!-- Generator: Adobe Illustrator 24.1.1, SVG Export Plug-In . SVG Version: 6.00 Build 0)  -->
<svg version="1.1" id="Layer_1" xmlns="http://www.w3.org/2000/svg" xmlns:xlink="http://www.w3.org/1999/xlink" x="0px" y="0px"
	 viewBox="0 0 512 512" style="enable-background:new 0 0 512 512;" xml:space="preserve">
<style type="text/css">
	.st0{fill-rule:evenodd;clip-rule:evenodd;fill:#D0D0D0;}
	.st1{fill-rule:evenodd;clip-rule:evenodd;fill:#1D1D1D;}
</style>
<g>
	<path class="st0" d="M256,301.97l2.8-0.23l-60.75-60.75l-0.23,2.8C197.82,275.9,223.89,301.97,256,301.97z M279.5,190.49l29.8,29.8
		C303.25,207.01,292.77,196.31,279.5,190.49z M461.27,243.78c-38.41-78.43-117.07-128-205.27-128c-15.82,0-31.18,2.09-46.32,5.11
		l21.41,21.41c8.16-2.09,16.3-3.25,24.91-3.25c57.7,0,104.73,47,104.73,104.73c0,8.61-1.41,16.75-3.25,24.91l47.7,47.7
		C427.98,296.38,447.3,271.94,461.27,243.78z M256,371.78c22.11,0,43.52-3.02,64-9.07l-22.82-22.82
		c-12.57,5.59-26.52,8.61-41.18,8.61c-57.73,0-104.73-47.02-104.73-104.73c0-14.66,3.02-28.64,8.39-41.2l-40.73-40.95
		c-28.41,21.18-51.91,48.89-68.2,81.93C89.14,321.99,167.8,371.78,256,371.78z"/>
	<path class="st1" d="M256,115.78c88.2,0,166.86,49.57,205.27,128c-13.75,28.39-33.07,52.82-56.09,72.61L438,349.22
		c32.34-28.64,57.93-64.48,74-105.43C471.73,141.63,372.36,69.24,256,69.24c-29.57,0-57.95,4.66-84.7,13.27l38.39,38.39
		C224.82,117.88,240.18,115.78,256,115.78z M309.07,220.28l48.16,48.16c1.86-7.91,3.27-16.27,3.27-24.89
		c0.23-57.73-46.8-104.5-104.5-104.5c-8.61,0-16.75,1.39-24.91,3.25l48.18,48.18C292.77,196.31,303.25,207.01,309.07,220.28z
		 M23.5,66.22l62.36,62.36C47.93,158.38,17.91,197.94,0,243.78c40.25,102.16,139.64,174.55,256,174.55
		c35.36,0,69.34-6.75,100.55-19.09l79.59,79.59l32.8-32.8L56.32,33.17L23.5,66.22z M198.05,240.76l60.75,60.73l-2.8,0.48
		c-32.11,0-58.18-26.07-58.18-58.18L198.05,240.76z M118.93,161.63l40.73,40.73c-5.36,12.8-8.39,26.77-8.39,41.43
		c0,57.7,47,104.73,104.73,104.73c14.66,0,28.61-3.02,41.18-8.39L320,362.94c-20.48,5.59-41.89,8.84-64,8.84
		c-88.2,0-166.86-49.57-205.27-128C67.02,210.51,90.75,183.03,118.93,161.63z"/>
</g>
</svg>
